<svg version="1.1" xmlns="http://www.w3.org/2000/svg" xmlns:xlink="http://www.w3.org/1999/xlink" width="524" height="308"><defs/><g><text fill="#eeeeee" stroke="none" font-family="Arial" font-size="24px" font-style="normal" font-weight="normal" text-decoration="none" x="0" y="0">UNREGISTERED</text><text fill="#eeeeee" stroke="none" font-family="Arial" font-size="24px" font-style="normal" font-weight="normal" text-decoration="none" x="0" y="30">UNREGISTERED</text><text fill="#eeeeee" stroke="none" font-family="Arial" font-size="24px" font-style="normal" font-weight="normal" text-decoration="none" x="0" y="60">UNREGISTERED</text><text fill="#eeeeee" stroke="none" font-family="Arial" font-size="24px" font-style="normal" font-weight="normal" text-decoration="none" x="0" y="90">UNREGISTERED</text><text fill="#eeeeee" stroke="none" font-family="Arial" font-size="24px" font-style="normal" font-weight="normal" text-decoration="none" x="0" y="120">UNREGISTERED</text><text fill="#eeeeee" stroke="none" font-family="Arial" font-size="24px" font-style="normal" font-weight="normal" text-decoration="none" x="0" y="150">UNREGISTERED</text><text fill="#eeeeee" stroke="none" font-family="Arial" font-size="24px" font-style="normal" font-weight="normal" text-decoration="none" x="0" y="180">UNREGISTERED</text><text fill="#eeeeee" stroke="none" font-family="Arial" font-size="24px" font-style="normal" font-weight="normal" text-decoration="none" x="0" y="210">UNREGISTERED</text><text fill="#eeeeee" stroke="none" font-family="Arial" font-size="24px" font-style="normal" font-weight="normal" text-decoration="none" x="0" y="240">UNREGISTERED</text><text fill="#eeeeee" stroke="none" font-family="Arial" font-size="24px" font-style="normal" font-weight="normal" text-decoration="none" x="0" y="270">UNREGISTERED</text><text fill="#eeeeee" stroke="none" font-family="Arial" font-size="24px" font-style="normal" font-weight="normal" text-decoration="none" x="0" y="300">UNREGISTERED</text><text fill="#eeeeee" stroke="none" font-family="Arial" font-size="24px" font-style="normal" font-weight="normal" text-decoration="none" x="200" y="0">UNREGISTERED</text><text fill="#eeeeee" stroke="none" font-family="Arial" font-size="24px" font-style="normal" font-weight="normal" text-decoration="none" x="200" y="30">UNREGISTERED</text><text fill="#eeeeee" stroke="none" font-family="Arial" font-size="24px" font-style="normal" font-weight="normal" text-decoration="none" x="200" y="60">UNREGISTERED</text><text fill="#eeeeee" stroke="none" font-family="Arial" font-size="24px" font-style="normal" font-weight="normal" text-decoration="none" x="200" y="90">UNREGISTERED</text><text fill="#eeeeee" stroke="none" font-family="Arial" font-size="24px" font-style="normal" font-weight="normal" text-decoration="none" x="200" y="120">UNREGISTERED</text><text fill="#eeeeee" stroke="none" font-family="Arial" font-size="24px" font-style="normal" font-weight="normal" text-decoration="none" x="200" y="150">UNREGISTERED</text><text fill="#eeeeee" stroke="none" font-family="Arial" font-size="24px" font-style="normal" font-weight="normal" text-decoration="none" x="200" y="180">UNREGISTERED</text><text fill="#eeeeee" stroke="none" font-family="Arial" font-size="24px" font-style="normal" font-weight="normal" text-decoration="none" x="200" y="210">UNREGISTERED</text><text fill="#eeeeee" stroke="none" font-family="Arial" font-size="24px" font-style="normal" font-weight="normal" text-decoration="none" x="200" y="240">UNREGISTERED</text><text fill="#eeeeee" stroke="none" font-family="Arial" font-size="24px" font-style="normal" font-weight="normal" text-decoration="none" x="200" y="270">UNREGISTERED</text><text fill="#eeeeee" stroke="none" font-family="Arial" font-size="24px" font-style="normal" font-weight="normal" text-decoration="none" x="200" y="300">UNREGISTERED</text><text fill="#eeeeee" stroke="none" font-family="Arial" font-size="24px" font-style="normal" font-weight="normal" text-decoration="none" x="400" y="0">UNREGISTERED</text><text fill="#eeeeee" stroke="none" font-family="Arial" font-size="24px" font-style="normal" font-weight="normal" text-decoration="none" x="400" y="30">UNREGISTERED</text><text fill="#eeeeee" stroke="none" font-family="Arial" font-size="24px" font-style="normal" font-weight="normal" text-decoration="none" x="400" y="60">UNREGISTERED</text><text fill="#eeeeee" stroke="none" font-family="Arial" font-size="24px" font-style="normal" font-weight="normal" text-decoration="none" x="400" y="90">UNREGISTERED</text><text fill="#eeeeee" stroke="none" font-family="Arial" font-size="24px" font-style="normal" font-weight="normal" text-decoration="none" x="400" y="120">UNREGISTERED</text><text fill="#eeeeee" stroke="none" font-family="Arial" font-size="24px" font-style="normal" font-weight="normal" text-decoration="none" x="400" y="150">UNREGISTERED</text><text fill="#eeeeee" stroke="none" font-family="Arial" font-size="24px" font-style="normal" font-weight="normal" text-decoration="none" x="400" y="180">UNREGISTERED</text><text fill="#eeeeee" stroke="none" font-family="Arial" font-size="24px" font-style="normal" font-weight="normal" text-decoration="none" x="400" y="210">UNREGISTERED</text><text fill="#eeeeee" stroke="none" font-family="Arial" font-size="24px" font-style="normal" font-weight="normal" text-decoration="none" x="400" y="240">UNREGISTERED</text><text fill="#eeeeee" stroke="none" font-family="Arial" font-size="24px" font-style="normal" font-weight="normal" text-decoration="none" x="400" y="270">UNREGISTERED</text><text fill="#eeeeee" stroke="none" font-family="Arial" font-size="24px" font-style="normal" font-weight="normal" text-decoration="none" x="400" y="300">UNREGISTERED</text><g transform="translate(-386,-110) scale(1,1)"><rect fill="#C0C0C0" stroke="none" x="403" y="275" width="96.80078125" height="87" opacity="0.2"/></g><g transform="translate(-386,-110) scale(1,1)"><rect fill="#ffffff" stroke="none" x="396" y="268" width="96.80078125" height="87"/></g><g transform="translate(-386,-110) scale(1,1)"><path fill="none" stroke="#000000" d="M 396 268 L 492.80078125 268 L 492.80078125 355 L 396 355 L 396 268 Z Z" stroke-miterlimit="10"/></g><g transform="translate(-386,-110) scale(1,1)"><path fill="none" stroke="#000000" d="M 396 293 L 492.80078125 293" stroke-miterlimit="10"/></g><g transform="translate(-386,-110) scale(1,1)"><path fill="none" stroke="#000000" d="M 396 303 L 492.80078125 303" stroke-miterlimit="10"/></g><g transform="translate(-386,-110) scale(1,1)"><g><path fill="none" stroke="none"/><text fill="#000000" stroke="none" font-family="Arial" font-size="13px" font-style="normal" font-weight="bold" text-decoration="none" x="416.581787109375" y="287.5">KcpClient</text></g></g><g transform="translate(-386,-110) scale(1,1)"><g><path fill="none" stroke="none"/><text fill="#000000" stroke="none" font-family="Arial" font-size="13px" font-style="normal" font-weight="normal" text-decoration="none" x="401" y="320.5">+connect()</text></g></g><g transform="translate(-386,-110) scale(1,1)"><g><path fill="none" stroke="none"/><text fill="#000000" stroke="none" font-family="Arial" font-size="13px" font-style="normal" font-weight="normal" text-decoration="none" x="401" y="335.5">+send_msg()</text></g></g><g transform="translate(-386,-110) scale(1,1)"><g><path fill="none" stroke="none"/><text fill="#000000" stroke="none" font-family="Arial" font-size="13px" font-style="normal" font-weight="normal" text-decoration="none" x="401" y="350.5">+grab_events()</text></g></g><g transform="translate(-386,-110) scale(1,1)"><rect fill="#C0C0C0" stroke="none" x="647" y="127" width="107.236328125" height="44" opacity="0.2"/></g><g transform="translate(-386,-110) scale(1,1)"><rect fill="#ffffff" stroke="none" x="640" y="120" width="107.236328125" height="44"/></g><g transform="translate(-386,-110) scale(1,1)"><path fill="none" stroke="#000000" d="M 640 120 L 747.236328125 120 L 747.236328125 164 L 640 164 L 640 120 Z Z" stroke-miterlimit="10"/></g><g transform="translate(-386,-110) scale(1,1)"><path fill="none" stroke="#000000" d="M 640 145 L 747.236328125 145" stroke-miterlimit="10"/></g><g transform="translate(-386,-110) scale(1,1)"><path fill="none" stroke="#000000" d="M 640 155 L 747.236328125 155" stroke-miterlimit="10"/></g><g transform="translate(-386,-110) scale(1,1)"><g><path fill="none" stroke="none"/><text fill="#000000" stroke="none" font-family="Arial" font-size="13px" font-style="normal" font-weight="bold" text-decoration="none" x="646.642333984375" y="139.5">SendMsgQueue</text></g></g><g transform="translate(-386,-110) scale(1,1)"><rect fill="#C0C0C0" stroke="none" x="411" y="143" width="84.8544921875" height="44" opacity="0.2"/></g><g transform="translate(-386,-110) scale(1,1)"><rect fill="#ffffff" stroke="none" x="404" y="136" width="84.8544921875" height="44"/></g><g transform="translate(-386,-110) scale(1,1)"><path fill="none" stroke="#000000" d="M 404 136 L 488.8544921875 136 L 488.8544921875 180 L 404 180 L 404 136 Z Z" stroke-miterlimit="10"/></g><g transform="translate(-386,-110) scale(1,1)"><path fill="none" stroke="#000000" d="M 404 161 L 488.8544921875 161" stroke-miterlimit="10"/></g><g transform="translate(-386,-110) scale(1,1)"><path fill="none" stroke="#000000" d="M 404 171 L 488.8544921875 171" stroke-miterlimit="10"/></g><g transform="translate(-386,-110) scale(1,1)"><g><path fill="none" stroke="none"/><text fill="#000000" stroke="none" font-family="Arial" font-size="13px" font-style="normal" font-weight="bold" text-decoration="none" x="410.2900390625" y="155.5">EventQueue</text></g></g><g transform="translate(-386,-110) scale(1,1)"><rect fill="#C0C0C0" stroke="none" x="635" y="259" width="137" height="115" opacity="0.2"/></g><g transform="translate(-386,-110) scale(1,1)"><rect fill="#ffffff" stroke="none" x="628" y="252" width="137" height="115"/></g><g transform="translate(-386,-110) scale(1,1)"><path fill="none" stroke="#000000" d="M 628 252 L 765 252 L 765 367 L 628 367 L 628 252 Z Z" stroke-miterlimit="10"/></g><g transform="translate(-386,-110) scale(1,1)"><path fill="none" stroke="#000000" d="M 628 277 L 765 277" stroke-miterlimit="10"/></g><g transform="translate(-386,-110) scale(1,1)"><path fill="none" stroke="#000000" d="M 628 300 L 765 300" stroke-miterlimit="10"/></g><g transform="translate(-386,-110) scale(1,1)"><g><path fill="none" stroke="none"/><text fill="#000000" stroke="none" font-family="Arial" font-size="13px" font-style="normal" font-weight="bold" text-decoration="none" x="675.1845703125" y="271.5">KcpNet</text></g></g><g transform="translate(-386,-110) scale(1,1)"><g><path fill="none" stroke="none"/><text fill="#000000" stroke="none" font-family="Arial" font-size="13px" font-style="normal" font-weight="normal" text-decoration="none" x="633" y="294.5">+event_callback_func</text></g></g><g transform="translate(-386,-110) scale(1,1)"><g><path fill="none" stroke="none"/><text fill="#000000" stroke="none" font-family="Arial" font-size="13px" font-style="normal" font-weight="normal" text-decoration="none" x="633" y="317.5">+connect()</text></g></g><g transform="translate(-386,-110) scale(1,1)"><g><path fill="none" stroke="none"/><text fill="#000000" stroke="none" font-family="Arial" font-size="13px" font-style="normal" font-weight="normal" text-decoration="none" x="633" y="332.5">+set_event_callback()</text></g></g><g transform="translate(-386,-110) scale(1,1)"><g><path fill="none" stroke="none"/><text fill="#000000" stroke="none" font-family="Arial" font-size="13px" font-style="normal" font-weight="normal" text-decoration="none" x="633" y="347.5">+send_msg()</text></g></g><g transform="translate(-386,-110) scale(1,1)"><path fill="none" stroke="#000000" d="M 446 181 L 445 267" stroke-miterlimit="10"/></g><g transform="translate(-386,-110) scale(1,1)"><path fill="#000000" stroke="none" d="M 440.9089294457004 256.7890675391646 L 445 267 L 449.3273958540367 256.8869566834476 L 445.25579666116715 245.00148713962383"/></g><g transform="translate(-386,-110) scale(1,1)"><path fill="none" stroke="#000000" d="M 440.9089294457004 256.7890675391646 L 445 267 L 449.3273958540367 256.8869566834476 L 445.25579666116715 245.00148713962383 L 440.9089294457004 256.7890675391646" stroke-miterlimit="10"/></g><g transform="translate(-386,-110) scale(1,1)"><g><path fill="none" stroke="none"/><text fill="#000000" stroke="none" font-family="Arial" font-size="13px" font-style="normal" font-weight="normal" text-decoration="none" x="429.5" y="208.5">1</text></g></g><g transform="translate(-386,-110) scale(1,1)"><g><path fill="none" stroke="none"/><text fill="#000000" stroke="none" font-family="Arial" font-size="13px" font-style="normal" font-weight="normal" text-decoration="none" x="428.5" y="251.5">1</text></g></g><g transform="translate(-386,-110) scale(1,1)"><path fill="none" stroke="#000000" d="M 693 165 L 695 251" stroke-miterlimit="10"/></g><g transform="translate(-386,-110) scale(1,1)"><path fill="#000000" stroke="none" d="M 690.5553427141674 240.9379414824055 L 695 251 L 698.9721025036246 240.7422028826507 L 694.4885103895272 229.0059467496694"/></g><g transform="translate(-386,-110) scale(1,1)"><path fill="none" stroke="#000000" d="M 690.5553427141674 240.9379414824055 L 695 251 L 698.9721025036246 240.7422028826507 L 694.4885103895272 229.0059467496694 L 690.5553427141674 240.9379414824055" stroke-miterlimit="10"/></g><g transform="translate(-386,-110) scale(1,1)"><g><path fill="none" stroke="none"/><text fill="#000000" stroke="none" font-family="Arial" font-size="13px" font-style="normal" font-weight="normal" text-decoration="none" x="677.5" y="192.5">1</text></g></g><g transform="translate(-386,-110) scale(1,1)"><g><path fill="none" stroke="none"/><text fill="#000000" stroke="none" font-family="Arial" font-size="13px" font-style="normal" font-weight="normal" text-decoration="none" x="678.5" y="235.5">1</text></g></g><g transform="translate(-386,-110) scale(1,1)"><path fill="none" stroke="#000000" d="M 627 310 L 494 311" stroke-miterlimit="10"/></g><g transform="translate(-386,-110) scale(1,1)"><path fill="#000000" stroke="none" d="M 504.130737995226 306.7141922964179 L 494 311 L 504.19403722491296 315.13298984478405 L 515.9993781709746 310.8345911415716"/></g><g transform="translate(-386,-110) scale(1,1)"><path fill="none" stroke="#000000" d="M 504.130737995226 306.7141922964179 L 494 311 L 504.19403722491296 315.13298984478405 L 515.9993781709746 310.8345911415716 L 504.130737995226 306.7141922964179" stroke-miterlimit="10"/></g><g transform="translate(-386,-110) scale(1,1)"><g><path fill="none" stroke="none"/><text fill="#000000" stroke="none" font-family="Arial" font-size="13px" font-style="normal" font-weight="normal" text-decoration="none" x="601.5" y="303.5">1</text></g></g><g transform="translate(-386,-110) scale(1,1)"><g><path fill="none" stroke="none"/><text fill="#000000" stroke="none" font-family="Arial" font-size="13px" font-style="normal" font-weight="normal" text-decoration="none" x="511.5" y="304.5">1</text></g></g><g transform="translate(-386,-110) scale(1,1)"><path fill="#ffffff" stroke="none" d="M 752 360 L 889 360 L 899 370 L 899 407 L 752 407 L 752 360"/></g><g transform="translate(-386,-110) scale(1,1)"><path fill="none" stroke="#000000" d="M 752 360 L 889 360 L 899 370 L 899 407 L 752 407 L 752 360 L 752 360" stroke-miterlimit="10"/></g><g transform="translate(-386,-110) scale(1,1)"><path fill="none" stroke="#000000" d="M 889 360 L 889 370 L 899 370 L 889 360" stroke-miterlimit="10"/></g><g transform="translate(-386,-110) scale(1,1)"><g><path fill="none" stroke="none"/><text fill="#000000" stroke="none" font-family="Arial" font-size="13px" font-style="normal" font-weight="normal" text-decoration="none" x="757" y="378">internal thread</text></g></g><g transform="translate(-386,-110) scale(1,1)"><path fill="#ffffff" stroke="none" d="M 456 352 L 561 352 L 571 362 L 571 401 L 456 401 L 456 352"/></g><g transform="translate(-386,-110) scale(1,1)"><path fill="none" stroke="#000000" d="M 456 352 L 561 352 L 571 362 L 571 401 L 456 401 L 456 352 L 456 352" stroke-miterlimit="10"/></g><g transform="translate(-386,-110) scale(1,1)"><path fill="none" stroke="#000000" d="M 561 352 L 561 362 L 571 362 L 561 352" stroke-miterlimit="10"/></g><g transform="translate(-386,-110) scale(1,1)"><g><path fill="none" stroke="none"/><text fill="#000000" stroke="none" font-family="Arial" font-size="13px" font-style="normal" font-weight="normal" text-decoration="none" x="461" y="370">thread of user</text></g></g></g></svg>